<!DOCTYPE svg PUBLIC "-//W3C//DTD SVG 20010904//EN" "http://www.w3.org/TR/2001/REC-SVG-20010904/DTD/svg10.dtd">
<svg version="1.0" xmlns="http://www.w3.org/2000/svg" width="596px" height="500px" viewBox="0 0 5960 5000" preserveAspectRatio="xMidYMid meet">
<g id="layer101" fill="#2b2b2b" stroke="none">
 <path d="M345 4934 c-63 -16 -92 -30 -126 -61 -62 -56 -76 -138 -28 -164 34 -18 64 -3 84 41 10 23 32 53 49 67 26 22 37 25 83 21 63 -5 103 -36 103 -79 0 -41 -32 -65 -121 -89 -43 -11 -94 -27 -112 -35 -109 -45 -138 -174 -57 -255 84 -84 283 -81 360 6 40 46 42 105 5 130 -34 22 -59 11 -92 -41 -41 -66 -91 -81 -159 -49 -62 30 -54 82 18 107 24 9 75 25 114 36 129 37 178 91 171 187 -5 72 -38 121 -102 150 -51 23 -150 38 -190 28z"/>
 <path d="M814 4930 c-63 -19 -69 -36 -72 -201 -3 -133 -6 -149 -21 -149 -24 0 -41 -20 -41 -48 0 -17 8 -27 30 -35 29 -11 30 -14 30 -69 0 -63 21 -98 60 -98 39 0 60 35 60 100 0 56 2 60 23 60 28 0 67 26 67 45 0 23 -30 45 -61 45 l-30 0 3 128 3 127 55 5 c50 5 55 7 58 31 2 15 -4 32 -15 41 -22 20 -107 30 -149 18z"/>
 <path d="M1105 4929 c-17 -4 -44 -22 -60 -39 l-30 -31 -3 -174 -3 -174 24 -16 c32 -21 71 -11 86 21 6 14 11 79 11 152 0 99 3 132 16 150 21 31 74 30 111 -2 28 -24 28 -26 33 -166 4 -125 7 -143 24 -156 27 -19 52 -18 76 6 19 19 20 33 20 210 0 177 -1 191 -20 210 -11 11 -28 20 -38 20 -23 0 -52 -30 -52 -55 0 -16 -3 -16 -27 7 -26 25 -90 49 -123 47 -8 0 -29 -5 -45 -10z"/>
 <path d="M1617 4926 c-88 -32 -126 -100 -127 -220 0 -124 42 -192 132 -217 51 -13 108 -4 153 27 l35 23 0 -87 c0 -101 14 -132 59 -132 50 0 51 3 51 307 l0 283 -25 16 c-31 20 -69 8 -80 -25 -6 -20 -7 -20 -43 4 -48 31 -106 39 -155 21z m134 -96 c48 -26 67 -135 35 -198 -20 -38 -67 -65 -100 -56 -116 29 -102 264 16 264 16 0 38 -5 49 -10z"/>
 <path d="M2045 4915 c-25 -24 -25 -27 -25 -199 0 -108 4 -184 11 -200 15 -32 54 -42 85 -21 24 15 24 16 24 210 0 182 -1 196 -20 215 -26 26 -46 25 -75 -5z"/>
 <path d="M2383 4931 c-108 -28 -172 -126 -160 -247 6 -55 34 -119 63 -145 95 -83 275 -67 339 30 76 114 41 287 -67 339 -50 24 -129 34 -175 23z m129 -121 c48 -52 49 -143 3 -199 -32 -37 -66 -45 -110 -27 -86 36 -87 214 -1 252 41 18 75 10 108 -26z"/>
 <path d="M3141 4930 c-146 -31 -233 -191 -201 -371 28 -158 142 -248 299 -237 94 7 171 51 207 120 28 54 10 118 -35 118 -23 0 -42 -17 -73 -66 -26 -41 -78 -74 -116 -74 -100 0 -172 111 -158 243 11 111 63 167 154 167 62 0 102 -29 135 -99 18 -38 27 -47 53 -49 114 -11 48 189 -78 237 -40 15 -138 21 -187 11z"/>
 <path d="M3693 4931 c-108 -28 -172 -126 -160 -247 6 -55 34 -119 63 -145 95 -83 275 -67 339 30 76 114 41 287 -67 339 -50 24 -129 34 -175 23z m129 -121 c48 -52 49 -143 3 -199 -32 -37 -66 -45 -110 -27 -86 36 -87 214 -1 252 41 18 75 10 108 -26z"/>
 <path d="M4070 4920 c-19 -19 -20 -33 -20 -215 l0 -195 25 -16 c30 -19 62 -11 77 21 l10 23 34 -23 c89 -61 219 -27 244 63 5 20 10 101 10 180 0 129 -2 144 -20 162 -11 11 -29 20 -40 20 -11 0 -29 -9 -40 -20 -18 -18 -20 -33 -20 -152 0 -161 -8 -182 -66 -186 -36 -3 -45 1 -68 28 -25 30 -26 36 -26 156 0 119 -1 126 -25 149 -29 30 -49 31 -75 5z"/>
 <path d="M4644 4933 c-12 -2 -32 -15 -45 -29 -23 -24 -24 -34 -27 -174 l-3 -148 -30 -6 c-25 -5 -29 -10 -29 -37 0 -25 6 -33 30 -42 29 -11 30 -14 30 -69 0 -45 5 -63 20 -78 25 -25 41 -25 71 -1 18 14 23 31 27 80 4 52 7 61 24 61 35 0 58 19 58 49 0 30 -14 41 -56 41 l-25 0 3 128 3 127 52 3 c47 3 54 6 59 28 4 13 1 31 -6 39 -22 27 -96 40 -156 28z"/>
 <path d="M4862 4924 c-21 -15 -22 -20 -22 -210 0 -181 1 -195 20 -214 11 -11 26 -20 33 -20 20 0 57 30 57 46 0 10 8 5 24 -13 20 -23 32 -28 69 -28 73 0 125 52 97 95 -7 11 -28 15 -77 15 -68 0 -68 0 -85 35 -14 27 -18 60 -18 148 0 107 -1 114 -25 137 -28 29 -42 31 -73 9z"/>
 <path d="M5293 4926 c-98 -32 -147 -103 -147 -216 0 -117 55 -192 163 -220 87 -23 193 12 238 79 60 89 53 226 -16 305 -45 51 -162 77 -238 52z m111 -90 c91 -38 87 -219 -7 -254 -71 -28 -132 31 -132 128 0 64 21 104 66 127 30 16 33 16 73 -1z"/>
 <path d="M5690 4920 c-19 -19 -20 -33 -20 -294 0 -305 1 -310 64 -304 52 5 56 24 56 311 l0 258 -25 24 c-29 30 -49 31 -75 5z"/>
 <path d="M2039 4419 c-14 -14 -19 -28 -15 -42 3 -12 6 -25 6 -28 0 -4 13 -12 30 -19 40 -17 80 7 80 49 0 55 -61 80 -101 40z"/>
 <path d="M1625 4306 c-61 -19 -97 -41 -136 -83 -51 -53 -71 -97 -77 -168 -4 -54 1 -78 43 -201 169 -497 426 -1119 599 -1451 20 -37 59 -124 87 -193 104 -254 288 -623 457 -915 104 -182 331 -511 422 -614 291 -330 708 -540 1189 -601 142 -18 203 -5 265 56 105 105 96 285 -16 337 -18 8 -90 22 -159 31 -464 58 -829 263 -1055 592 l-37 53 100 95 c74 71 109 113 136 163 23 44 62 94 112 143 213 208 356 468 372 676 9 109 -30 197 -100 230 -45 20 -878 174 -943 174 -30 0 -54 2 -54 5 0 18 320 715 473 1030 l122 250 0 75 c-1 117 -51 196 -157 249 -107 54 -227 37 -293 -40 -39 -47 -385 -769 -555 -1161 -18 -43 -34 -77 -35 -75 -2 1 -28 60 -60 132 -87 199 -234 575 -324 830 -102 289 -106 299 -152 340 -59 53 -140 68 -224 41z m1639 -2176 c88 -17 161 -32 163 -34 10 -10 -139 -216 -155 -216 -10 0 -130 152 -182 229 l-42 63 28 -6 c16 -4 101 -20 188 -36z"/>
 <path d="M3731 1494 c-155 -56 -243 -184 -244 -352 0 -75 3 -89 37 -157 41 -84 92 -134 176 -174 47 -22 69 -26 150 -26 88 0 101 3 162 33 183 90 258 314 166 496 -31 60 -105 133 -166 163 -71 35 -210 43 -281 17z"/>
 </g>

</svg>